<svg version="1" xmlns="http://www.w3.org/2000/svg" width="346.667" height="346.667" viewBox="0 0 260.000000 260.000000"><path d="M110.7 75.8c-35 35-63.7 64.3-63.7 65 0 .9 8.7 1.2 40 1.2 42.4 0 42.9.1 38 4.5-1.1 1-2 2.2-2 2.8 0 .5-1.3 2.6-3 4.7-1.6 2.1-3 4.1-3 4.5 0 .4-1.3 2.4-3 4.5-1.6 2.1-3 4.1-3 4.5 0 .4-1.3 2.4-3 4.5-1.6 2.1-3 4.1-3 4.5 0 .4-1.3 2.4-3 4.5-1.6 2.1-3 4.1-3 4.5 0 .4-1.3 2.4-3 4.5-1.6 2.1-3 4.1-3 4.5 0 .4-1.3 2.4-3 4.5-1.6 2.1-3 4.1-3 4.5 0 .3-2 3.3-4.5 6.5s-4.5 6.2-4.5 6.5c0 .4-1.3 2.4-3 4.5-1.6 2.1-3 4.1-3 4.5 0 .4-1.3 2.4-2.8 4.4-1.6 2-3.2 4.3-3.5 5.1-.4.8-1.6 2.8-2.7 4.5-7 10.6-4.8 10.5 6.2-.1 5.1-4.9 16.9-15.9 26.3-24.4 9.3-8.5 23-21.1 30.5-28 7.5-6.9 23.7-21.7 36-33 35.3-32.2 50-46.1 50-47.1 0-.5-16.6-.9-40.5-.9-33.1 0-40.5-.2-40.5-1.3 0-1.3 3.4-8.1 17.6-35.2 30.3-58 30-57.5 27.1-57.5-.6 0-29.9 28.7-65 63.8zm40.8-27.1c-2.3 4.3-11.8 21-20.9 37.2-14.4 25.5-17.6 31.8-16.3 32.2.1 0 14.4.3 31.7.5 17.3.3 31.9.6 32.3.7.4.1-18.8 20-42.8 44.2l-43.5 44 17.7-24c9.7-13.2 22.1-30 27.5-37.2 5.4-7.3 9.8-14 9.8-14.8 0-1.3-4.4-1.5-35-1.5-22.5 0-35-.4-35-1 0-1.1 4.8-6.6 33.1-38.1 18.4-20.5 45.2-49.7 45.6-49.9.1 0-1.8 3.5-4.2 7.7z"/></svg>